<svg xmlns="http://www.w3.org/2000/svg" width="24.632" height="25.751"><g data-name="Group 22670" opacity=".501" fill="#02363d"><path data-name="Path 5376" d="M.56 7.837h10.148a2.792 2.792 0 012.15 1.007l1.96 2.352h9.255a.56.56 0 01.56.56v11.2a2.8 2.8 0 01-2.8 2.8H2.8a2.8 2.8 0 01-2.8-2.8V8.397a.56.56 0 01.56-.56zm22.952 4.479h-8.957a.56.56 0 01-.43-.2L12 9.561a1.674 1.674 0 00-1.29-.6H1.12v14a1.681 1.681 0 001.679 1.679h19.033a1.681 1.681 0 001.679-1.679z"/><path data-name="Path 5377" d="M22.393 11.756h-1.12V7.509l-6.39-6.39H3.919a.561.561 0 00-.56.56v6.718H2.24V1.679a1.681 1.681 0 011.679-1.68h11.2a.56.56 0 01.4.164l6.718 6.718a.558.558 0 01.164.4z"/><path data-name="Path 5378" d="M21.832 7.838h-6.717a.56.56 0 01-.56-.56V1.12h1.12v5.6h6.158z"/><path data-name="Line 4378" d="M10.636 5.599H5.598v-1.12h5.038z"/></g></svg>