<svg data-name="Delete / Clear" xmlns="http://www.w3.org/2000/svg" width="24" height="24"><rect data-name="Rectangle 3090" width="24" height="24" rx="4" fill="none"/><g fill="#ce6666" stroke="#ce6666" stroke-width=".1"><path data-name="Path 5181" d="M14.011 9.996a.341.341 0 00-.341.341v6.441a.341.341 0 00.682 0v-6.441a.341.341 0 00-.341-.341zm0 0"/><path data-name="Path 5182" d="M9.989 9.996a.341.341 0 00-.341.341v6.441a.341.341 0 00.682 0v-6.441a.341.341 0 00-.341-.341zm0 0"/><path data-name="Path 5183" d="M7.058 9.057v8.4a1.88 1.88 0 00.5 1.3 1.678 1.678 0 001.218.527h6.448a1.678 1.678 0 001.218-.527 1.88 1.88 0 00.5-1.3v-8.4a1.3 1.3 0 00-.334-2.56h-1.745V6.07a1.339 1.339 0 00-1.35-1.344h-3.026a1.339 1.339 0 00-1.35 1.346v.424H7.395a1.3 1.3 0 00-.334 2.56zm8.166 9.539H8.776a1.079 1.079 0 01-1.036-1.142V9.087h8.52v8.367a1.079 1.079 0 01-1.036 1.141zM9.819 6.07a.657.657 0 01.668-.664h3.026a.657.657 0 01.668.665v.425H9.819zM7.395 7.178h9.216a.614.614 0 110 1.227H7.395a.614.614 0 110-1.227zm0 0"/><path data-name="Path 5184" d="M12 9.996a.341.341 0 00-.341.341v6.441a.341.341 0 00.682 0v-6.441A.341.341 0 0012 9.996zm0 0"/></g></svg>