<svg xmlns="http://www.w3.org/2000/svg" width="17.122" height="20.622" viewBox="0 0 17.122 20.622">
  <path id="Path_5611" data-name="Path 5611" d="M105.31,5916.122h-14A1.314,1.314,0,0,1,90,5914.81v-17.5A1.314,1.314,0,0,1,91.312,5896h9.624a.437.437,0,0,1,.309.128l5.249,5.249a.438.438,0,0,1,.128.31v13.123A1.314,1.314,0,0,1,105.31,5916.122Zm-14-19.247a.438.438,0,0,0-.437.438v17.5a.438.438,0,0,0,.437.438h14a.438.438,0,0,0,.437-.437v-12.942l-4.993-4.993Z" transform="translate(-89.75 -5895.75)" fill="#418c8c" stroke="#418c8c" stroke-width="0.5"/>
</svg>
