<svg id="Capa_1" data-name="Capa 1" xmlns="http://www.w3.org/2000/svg" viewBox="0 0 512.08 512.04"><defs><style>.cls-1{fill:#afaeaa;}</style></defs><title>phone-ico</title><path class="cls-1" d="M498.64,395l-19.89-13.25A254.79,254.79,0,0,0,257.05,1.08a8.54,8.54,0,0,0,0,17.07A237.72,237.72,0,0,1,464.5,372.28L395,325.92a30.25,30.25,0,0,0-40.51,6.58L324.3,371.32a12.93,12.93,0,0,1-16.55,3.48L302,371.63c-19-10.38-42.73-23.29-90.46-71s-60.67-71.45-71.05-90.45l-3.15-5.74a12.92,12.92,0,0,1,3.42-16.61l38.79-30.18a30.27,30.27,0,0,0,6.59-40.51L117,13.45A30.11,30.11,0,0,0,76.46,4.32l-43.34,26A61.11,61.11,0,0,0,5.24,66.54c-15.6,56.86-3.86,155,140.71,299.6,63,63,117.12,100.69,162.9,122A237.3,237.3,0,0,1,19.23,256.06a8.54,8.54,0,1,0-17.07,0c.13,140.73,114.16,254.79,254.89,255a252.17,252.17,0,0,0,77.66-12.23,210.09,210.09,0,0,0,70.7,13.26,151.68,151.68,0,0,0,40.11-5.24,61.11,61.11,0,0,0,36.18-27.88l26.06-43.32A30.1,30.1,0,0,0,498.64,395Zm-5.55,31.8-26,43.34A44.11,44.11,0,0,1,441,490.38c-24.82,6.83-58.45,7.68-101.65-7.89a8.16,8.16,0,0,0-2.18-.85C289.41,463.89,230.08,426.08,158,354,19.25,215.28,7.29,123.56,21.7,71.05A44.24,44.24,0,0,1,41.9,45L85.24,19a13.07,13.07,0,0,1,17.61,4l37.54,56.37,31.52,47.27a13.15,13.15,0,0,1-2.85,17.58l-38.8,30.18a29.86,29.86,0,0,0-7.91,38.33l3.08,5.6c10.9,20,24.46,44.88,74,94.38s74.38,63,94.37,74l5.61,3.09a29.89,29.89,0,0,0,38.33-7.91L367.88,343a13.14,13.14,0,0,1,17.58-2.85L489.1,409.26A13,13,0,0,1,493.09,426.84Z" transform="translate(0 -0.02)"/></svg>