<svg id="Delete_Clear" data-name="Delete / Clear" xmlns="http://www.w3.org/2000/svg" width="24" height="24" viewBox="0 0 24 24">
  <rect id="Rectangle_3090" data-name="Rectangle 3090" width="24" height="24" rx="4" fill="none"/>
  <g id="delete" transform="translate(6.09 4.724)">
    <path id="Path_5181" data-name="Path 5181" d="M317.531,220.641a.341.341,0,0,0-.341.341v6.441a.341.341,0,0,0,.682,0v-6.441A.341.341,0,0,0,317.531,220.641Zm0,0" transform="translate(-309.61 -215.369)" fill="#ce6666" stroke="#ce6666" stroke-width="0.1"/>
    <path id="Path_5182" data-name="Path 5182" d="M149.236,220.641a.341.341,0,0,0-.341.341v6.441a.341.341,0,0,0,.682,0v-6.441A.341.341,0,0,0,149.236,220.641Zm0,0" transform="translate(-145.337 -215.369)" fill="#ce6666" stroke="#ce6666" stroke-width="0.1"/>
    <path id="Path_5183" data-name="Path 5183" d="M.963,4.331v8.4a1.88,1.88,0,0,0,.5,1.3,1.678,1.678,0,0,0,1.218.527H9.129a1.678,1.678,0,0,0,1.218-.527,1.88,1.88,0,0,0,.5-1.3v-8.4a1.3,1.3,0,0,0-.334-2.56H8.768V1.344A1.339,1.339,0,0,0,7.418,0H4.392a1.339,1.339,0,0,0-1.35,1.346V1.77H1.3a1.3,1.3,0,0,0-.334,2.56Zm8.166,9.539H2.681a1.079,1.079,0,0,1-1.036-1.142V4.361h8.52v8.367A1.079,1.079,0,0,1,9.129,13.869ZM3.724,1.344A.657.657,0,0,1,4.392.68H7.418a.657.657,0,0,1,.668.665V1.77H3.724ZM1.3,2.452h9.216a.613.613,0,1,1,0,1.227H1.3a.613.613,0,1,1,0-1.227Zm0,0" transform="translate(0.005 0.002)" fill="#ce6666" stroke="#ce6666" stroke-width="0.1"/>
    <path id="Path_5184" data-name="Path 5184" d="M233.384,220.641a.341.341,0,0,0-.341.341v6.441a.341.341,0,0,0,.682,0v-6.441A.341.341,0,0,0,233.384,220.641Zm0,0" transform="translate(-227.474 -215.369)" fill="#ce6666" stroke="#ce6666" stroke-width="0.1"/>
  </g>
</svg>
