<svg xmlns="http://www.w3.org/2000/svg" width="16.4" height="20.596" viewBox="0 0 16.4 20.596">
  <g id="uploud" transform="translate(-0.3 0.2)">
    <path id="Path_6084" data-name="Path 6084" d="M11.383.156A.489.489,0,0,0,11.032,0H3.154A2.665,2.665,0,0,0,.5,2.649v14.9A2.665,2.665,0,0,0,3.154,20.2H13.846A2.665,2.665,0,0,0,16.5,17.546V5.717a.525.525,0,0,0-.141-.341Zm.141,1.566,3.332,3.5H12.69a1.162,1.162,0,0,1-1.166-1.161Zm2.322,17.5H3.154a1.69,1.69,0,0,1-1.678-1.673V2.649A1.69,1.69,0,0,1,3.154.976h7.4V4.059A2.134,2.134,0,0,0,12.69,6.2h2.834V17.546A1.686,1.686,0,0,1,13.846,19.22Zm0,0" transform="translate(0 0)" fill="#02363d" stroke="#02363d" stroke-width="0.4"/>
    <path id="Path_6085" data-name="Path 6085" d="M97.575,401.934H89.653a.5.5,0,0,0,0,.992h7.926a.5.5,0,0,0,0-.992Zm0,0" transform="translate(-85.114 -386.094)" fill="#02363d" stroke="#02363d" stroke-width="0.4"/>
    <path id="Path_6086" data-name="Path 6086" d="M119.249,174.252l2.045-2.2v5.419a.5.5,0,0,0,.993,0v-5.419l2.045,2.2a.5.5,0,0,0,.725-.675l-2.908-3.121a.493.493,0,0,0-.724,0l-2.908,3.121a.5.5,0,0,0,.025.7A.506.506,0,0,0,119.249,174.252Zm0,0" transform="translate(-113.29 -163.649)" fill="#02363d" stroke="#02363d" stroke-width="0.4"/>
  </g>
</svg>
